<!DOCTYPE svg PUBLIC "-//W3C//DTD SVG 1.1//EN" "http://www.w3.org/Graphics/SVG/1.1/DTD/svg11.dtd">
<svg xmlns="http://www.w3.org/2000/svg" xmlns:xlink="http://www.w3.org/1999/xlink" version="1.1" id="Layer_1" x="0px" y="0px" width="56" height="15" viewBox="0 0 56 15" enable-background="new 0 0 56 15" xml:space="preserve">
<style type="text/css">
      #path-1 {
        fill: #8c8c7c;
     }
    </style>

<path id="path-1" d="M19.7,0.8c0,0.1,0,0.1,0,0.2C19.9,1,20,1,20,1c0,0.1,0,0.2,0,0.3c0.1,0,0.2,0,0.2,0c0-0.1,0-0.2,0-0.3  c0.5,0,1-0.1,1.4-0.1c0,0.1,0,0.2,0,0.2c1.6,0,0.4-0.1,2.1-0.1c0-0.2,0-0.3,0-0.5c0.1,0,0.1,0,0.2,0c0,0.2,0,0.4,0.1,0.5  C24.5,1.3,24.9,1,25.2,1c0.1,0.3,0.1,0.8-0.2,0.8c-0.2-0.2-1.2-0.2-1.5-0.1c0,0.1,0.1,0,0,0.1c-1.3,0,1.3-0.1,0,0  c0.8,0,0.5-0.4,0.8-0.2c0.7,0-0.7,0.1,0,0.1c0,0.1,0,0.1,0,0.1c-1.1,0-2.6,0.4-3.3,0c0,0.3-0.5,0.5-0.5,0.8c-0.1,0-0.2,0-0.2,0  c0,0.1,0.1,0.1,0.1,0.2c0,0-0.1,0.2-0.1,0.2c0.1,0,0.3-0.1,0.4-0.1c0-0.1,0-0.3,0-0.4c0,0,0.1,0,0.1,0c0,0.1,0,0.3,0,0.4  c0.6,0,1-0.1,1.6,0c0.3,0.1,0.7-0.1,0.9,0.1c0.6,0.3,3,0,3.8,0c0.1,0.8,2,1.7,2.7,2c1.4,0,2.9-0.1,4.3-0.1c3.7,0.1,7.4,0,11.1,0  c1.8,0,5.4,0,7,0c1.5,0,1.9-1.5,3.1-0.7c0,0.4,0.1,2-0.1,2.3c-0.1,0-0.1,0.1-0.2,0.1c-1.3,0-1.8-0.6-2.9-0.8c-1.5,0-3.3,0.1-4.8,0.1  c-0.9-0.2-2.4,0-3.5,0c-2.6,0-5.5,0-8,0.1c-1.5,0-6.5-0.3-7.2,0.3c0,0,0,0,0,0c0.7,0,1.4,0,1.7,0.2c0.1-0.2,0.3-0.3,0.7-0.3  c0.2,0.6,1,0.2,1.5,0.4c0,0,0,0,0,0c0,0.1-0.2,0.2-0.1,0.2c0.3,0.1,0.6,0.2,1,0.4c0.1-0.4,0.1-0.5,0.3-0.8c1.1-0.1,1.2,0.4,0.8,1.1  c0.3,0,0.2-0.2,0.5-0.4c0,0,0,0,0,0c-0.1,0.1-0.1,0.2-0.2,0.4c2.8,0,2.1,0.4,3.6,1.6c0,0,0,0.1,0,0.1c-0.3,0.2-0.7,0.4-1,0.6  c0.4,1.7-2.5,2.9-3.6,3.6c-0.4,0.3-0.9,0.9-1.3,1.2c-0.6,0.2-1.6,0.2-2.4,0.2c-1.6,0-3.1,0-4.7,0c-5.3,0-10.7,0-16,0  c-1.3-0.3-2.3-1.3-3.3-1.9c-0.2-0.1-0.4,0-0.5-0.1C5,12.7,3.3,11,3.3,10.5c-0.2,0.1-1,0.4-1.3,0.3c0.1-0.1,0-0.7,0.1-0.8  c0.2-0.2,1.1-0.2,1.3-0.4C2.8,9.8,2.3,9.4,2.2,8.9C2,9,1.9,9,1.8,9c0-0.1,0.1-0.1,0.1-0.2c-1,0.4-2.4-0.6-1.8-1.6  c0.7-1.2,2-0.2,2.6-0.1C2.8,7.1,2.8,7.1,2.9,7c0-0.1,0-0.2,0-0.2c-0.1,0-0.1,0-0.2,0c0-0.1,0,0.2,0,0.1c2.2,0,3.5-0.2,4.3-0.1  c0-0.1,0.1-0.1,0.1-0.2C7.1,6.6,7,6.1,7,6.1c0.9,0,1.2,0,2.1,0c0,0.1,0,0.7,0,0.8c0.6,0,3.3-0.3,4.1,0c0.1,0.1,2.7-0.2,2.7-0.1  c0.5,0.3,0-0.8,0.3-0.9c-0.6,0-1.4,0-2,0c0.1-1.1-0.1-1.1,0.1-2c-0.4-0.3-0.9-1.6-1.3-1.9c0.1-0.1,0.4,0,0.5,0  c0.4,0,0.6,0.7,0.7,0.8c0-0.1,0.1-0.2,0.1-0.4c0,0,0,0,0,0c0,0,0,0,0,0c0,0.2-0.1,0.4-0.1,0.6c-0.1,0-0.1,0-0.2,0c0,0,0.1,0,0.1,0  c0.2,0.2,0.4,0.3,0.7,0.3c0-0.1,0.1-0.1,0.1-0.2c0,0,0,0,0,0c-0.1,0-0.1,0-0.2,0c0-0.3,0.1-0.4,0.1-0.6c-0.1-0.1-0.1-0.1-0.2-0.2  c0-0.1,0-0.1,0-0.2c0.2,0,0.3,0,0.5,0c0,0.1,0.1,0.1,0.1,0.2c-0.1,0.1-0.1,0.2-0.2,0.2c0.2,0.1,0.1,0,0.2,0.2  c0.1-0.1,0.3-0.2,0.4-0.4c0.3-0.1,0.7,0.1,1,0c-0.1-0.1-0.2-0.2-0.3-0.2c0,0,0.1,0,0.1,0c0.1-0.1,0.1-0.1,0.2-0.2  C16.6,2,16.6,2,16.8,2c0-0.1,0.1-0.2,0.1-0.2C17.3,1.9,18.5,2,19,1.7c-0.5-0.1-0.9,0.5-1.1,0.1C18,1.5,18,1.4,18.3,1.4  c0.1-0.4,1.1,0.1,1.3-0.6c-0.2,0-0.2,0-0.3-0.1c0-0.3,0-0.6,0.1-0.8c0.4,0,0.8,0,1.1,0.1c0,0.2,0,0.4,0,0.7  C20.2,0.8,20,0.8,19.7,0.8z"/>

</svg>