<?xml version="1.0" encoding="utf-8"?>
<!-- Generator: Adobe Illustrator 22.1.0, SVG Export Plug-In . SVG Version: 6.00 Build 0)  -->
<svg version="1.1" id="Layer_1" xmlns="http://www.w3.org/2000/svg" xmlns:xlink="http://www.w3.org/1999/xlink" x="0px" y="0px"
	 width="78px" height="21.2px" viewBox="0 0 78 21.2" style="enable-background:new 0 0 78 21.2;" xml:space="preserve">
<style type="text/css">
	.st0{fill-rule:evenodd;clip-rule:evenodd;fill:#8C8C7C;}
</style>
<path class="st0" d="M78,8.1v2.3l-5,0L72,10l-18.9,0l0,0.3l-12,0l-1,1l-4,0l0,1l4,0l0.7,1l2.4,0l1.1,1.1l1.9,0l1,1l0,2l-1,1L40,21.2
	l-29.9,0L6,20.3l-2-1v-1l-1-1l0-1l-0.9,0l-1,0l-1-0.5l0-1.5l1.7-0.9L4,13.3l6-1l4,0l0-0.6L13,11.5l-0.8-1.1l1-2.2L12,7.6l0-2.3
	l2.6,0l0.9,1.6L16,6.3h2l1,0l0-1.5l-2.1-2l0.3-0.3l-2-1.7L15.8,0l3,2.6h0.4L20,3.3l0.7-0.9l1,0.8l-0.7,1.2l0.7,0.5l-0.3,0.8l1.3,0
	L23,5.2l0-2l2,0l0,2l-1,0l0,1h1l13,1l0-1l1.9,0l0,1.5l0,0l0.9,0L41,8.1l12,0l0,0.2L72,8.4l1.5-0.3L78,8.1z"/>
</svg>
