<?xml version="1.0" encoding="UTF-8" standalone="no"?>
<svg width="57px" height="16px" viewBox="0 0 57 16" version="1.1" xmlns="http://www.w3.org/2000/svg" xmlns:xlink="http://www.w3.org/1999/xlink">
    <!-- Generator: Sketch 3.6.1 (26313) - http://www.bohemiancoding.com/sketch -->
    <title>AMX_50Fosh_155.svg</title>
    <desc>Created with Sketch.</desc>
    <defs></defs>
    <g id="Page-1" stroke="none" stroke-width="1" fill="none" fill-rule="evenodd">
        <path d="M36,5 L36,7 L38.0027084,7 C39.1057821,7 39.9012161,7.88905519 39.7792373,8.98686457 L39.5,11.5 L35.5466931,14.7345238 C34.6924781,15.433427 33.1001025,16 32.0087557,16 L7.99124431,16 C6.89151044,16 5.39731835,15.3340447 4.6605686,14.519946 L1.13424036,10.6234 C0.765627727,10.2160879 0.393869371,9.43497491 0.306159262,8.89273443 L0,7 C0,7 1,6 1,5 C1,4 0,3 0,3 L16.6111111,3 L21,3 L21,3 L0,3 L0,2 L21,2 L21,1 L28,1 L28,3 L34.9978446,3 C35.5467033,3 36,3.44358641 36,3.99077797 L36,4 L57,4 L57,5 L36,5 Z M21,0 L25,0 L25,1 L21,1 L21,0 Z M28,1 L31,1 L31,2 L28,2 L28,1 Z" id="AMX_50Fosh_155.svg" fill="#8C8C7C"></path>
    </g>
</svg>