<svg xmlns="http://www.w3.org/2000/svg" xmlns:xlink="http://www.w3.org/1999/xlink" preserveAspectRatio="xMidYMid" width="48" height="19" viewBox="0 0 48 19">
  <defs>
    <style type="text/css">
      .cls-1 {
        fill: #8c8c7c;
        fill-rule: evenodd;
      }
    </style>
  </defs>
  <path d="M6.000,19.000 L27.000,19.000 L31.000,17.000 L32.000,15.000 L32.000,13.000 L30.000,11.000 L26.000,11.000 L25.000,10.000 L24.000,10.000 L24.000,11.000 L23.000,11.000 L23.000,10.000 L21.000,10.000 L21.000,11.000 L19.000,11.000 L18.000,9.000 L45.000,9.000 L45.000,10.000 L47.000,10.000 L48.000,9.000 L48.000,7.000 L47.000,7.000 L14.000,7.000 L14.000,6.000 L17.000,6.000 L17.000,4.000 L17.000,3.000 L15.000,3.000 L13.000,4.000 L9.000,5.000 L9.000,6.000 L7.000,6.000 L7.000,-0.000 L6.000,-0.000 L6.000,6.000 L5.000,6.000 L5.000,9.000 L9.000,9.000 L9.000,10.000 L2.000,10.000 L-0.000,11.000 L-0.000,15.000 L2.000,18.000 L6.000,19.000 Z" class="cls-1"/>
</svg>