<?xml version="1.0" encoding="UTF-8" standalone="no"?>
<svg width="54px" height="17px" viewBox="0 0 54 17" version="1.1" xmlns="http://www.w3.org/2000/svg" xmlns:xlink="http://www.w3.org/1999/xlink" xmlns:sketch="http://www.bohemiancoding.com/sketch/ns">
    <!-- Generator: Sketch 3.4.2 (15855) - http://www.bohemiancoding.com/sketch -->
    <title>Shape</title>
    <desc>Created with Sketch.</desc>
    <defs></defs>
    <g id="Page-1" stroke="none" stroke-width="1" fill="none" fill-rule="evenodd" sketch:type="MSPage">
        <path d="M34.579,16.959 L37.471,15.366 C37.471,15.366 40.128,13.648 40.597,13.179 C41.066,12.711 41.848,11.305 41.848,11.305 L41.926,9.587 L39.19,7.478 L33.25,7.478 L29.185,6.462 L53.882,6.462 L53.871,5 L28.873,5 L26.919,3.417 L25.902,3.338 L27.075,2.323 L27.231,0.683 L24.886,0.605 L24.059,1.396 L19.681,1.461 C19.681,1.461 19.229,1.042 19.552,1.042 C19.875,1.042 20.57,0.913 20.57,0.913 L20.474,0.032 L16.627,0.036 L16.369,0.654 L16.821,1.106 L11.587,1.558 L10.23,1.946 L9.971,4.657 L13.267,5.367 L12.686,5.69 L4.284,5.432 L0.084,6.142 L0.084,11.694 L4.026,15.632 L7.3,16.959 L34.579,16.959 Z" id="Shape" fill="#8C8C7C" sketch:type="MSShapeGroup"></path>
    </g>
</svg>