<svg xmlns="http://www.w3.org/2000/svg" xmlns:xlink="http://www.w3.org/1999/xlink" preserveAspectRatio="xMidYMid" width="48" height="20" viewBox="0 0 48 20">
  <defs>
    <style type="text/css">
      .cls-1 {
        fill: #8c8c7c;
        fill-rule: evenodd;
      }
    </style>
  </defs>
  <path d="M6.979,1.118 C7.326,1.118 7.645,1.118 7.992,1.118 C7.992,1.368 7.992,1.742 7.992,1.991 C13.165,1.991 16.818,1.991 21.991,1.991 C21.991,1.742 21.991,0.337 21.991,0.087 C22.279,0.087 23.684,0.132 23.972,0.132 C23.972,0.402 23.972,1.730 23.972,1.999 C24.742,1.999 25.192,1.999 25.961,1.999 C25.961,2.153 25.961,3.481 25.961,3.481 L26.831,4.346 L30.462,3.801 L30.462,4.752 L28.972,5.279 L28.972,6.144 L35.050,4.788 L35.050,5.192 L33.262,5.824 L33.262,6.230 L35.020,5.597 L35.020,6.317 L26.966,9.093 L26.971,9.970 L40.444,9.948 C40.444,9.948 41.221,10.435 41.483,10.461 C41.502,10.557 41.512,10.807 41.512,10.807 L42.349,10.807 L44.224,11.704 L45.110,11.722 L47.053,13.549 C47.053,13.549 46.024,14.643 46.043,14.502 C46.140,14.615 46.072,15.453 46.072,15.453 C46.072,15.453 45.857,16.612 45.639,16.838 C45.524,16.934 45.409,17.030 45.293,17.127 C45.255,17.184 45.216,17.242 45.178,17.300 C45.139,17.300 45.101,17.300 45.062,17.300 C45.062,17.319 45.062,17.338 45.062,17.357 C45.024,17.357 44.985,17.357 44.947,17.357 C44.947,17.376 44.947,17.396 44.947,17.415 C44.889,17.415 44.832,17.415 44.774,17.415 C44.774,17.434 44.774,17.453 44.774,17.473 C44.658,17.511 44.543,17.550 44.428,17.588 C44.428,17.607 44.428,17.626 44.428,17.646 C44.389,17.646 44.351,17.646 44.312,17.646 C44.312,17.665 44.312,17.684 44.312,17.703 C44.274,17.703 44.235,17.703 44.197,17.703 C44.197,17.723 44.197,17.742 44.197,17.761 C44.158,17.761 44.120,17.761 44.081,17.761 C44.081,17.780 44.081,17.800 44.081,17.819 C44.043,17.819 44.005,17.819 43.966,17.819 C43.966,17.838 43.966,17.857 43.966,17.877 C43.928,17.877 43.889,17.877 43.851,17.877 C43.851,17.896 43.851,17.915 43.851,17.934 C43.812,17.934 43.774,17.934 43.735,17.934 C43.735,17.953 43.735,17.973 43.735,17.992 C43.697,17.992 43.658,17.992 43.620,17.992 C43.620,18.011 43.620,18.030 43.620,18.050 C43.581,18.050 43.543,18.050 43.504,18.050 C43.504,18.069 43.504,18.088 43.504,18.107 C43.428,18.127 43.351,18.146 43.274,18.165 C43.274,18.184 43.274,18.204 43.274,18.223 C43.197,18.242 43.120,18.261 43.043,18.280 C43.043,18.300 43.043,18.319 43.043,18.338 C43.004,18.338 42.966,18.338 42.927,18.338 C42.927,18.357 42.927,18.377 42.927,18.396 C42.889,18.396 42.851,18.396 42.812,18.396 C42.812,18.415 42.812,18.434 42.812,18.453 C42.774,18.453 42.735,18.453 42.697,18.453 C42.697,18.473 42.697,18.492 42.697,18.511 C42.658,18.511 42.620,18.511 42.581,18.511 C42.581,18.530 42.581,18.550 42.581,18.569 C42.543,18.569 42.504,18.569 42.466,18.569 C42.466,18.588 42.466,18.607 42.466,18.627 C42.351,18.665 42.235,18.704 42.120,18.742 C42.120,18.761 42.120,18.780 42.120,18.800 C42.043,18.819 41.966,18.838 41.889,18.857 C41.889,18.877 41.889,18.896 41.889,18.915 C41.831,18.915 41.774,18.915 41.716,18.915 C41.716,18.934 41.716,18.954 41.716,18.973 C41.639,18.992 41.562,19.011 41.485,19.031 C41.485,19.050 41.485,19.069 41.485,19.088 C41.370,19.127 41.254,19.165 41.139,19.204 C41.139,19.223 41.139,19.242 41.139,19.261 C41.100,19.261 41.062,19.261 41.024,19.261 C41.024,19.281 41.024,19.300 41.024,19.319 C40.985,19.319 40.947,19.319 40.908,19.319 C40.908,19.338 40.908,19.357 40.908,19.377 C40.870,19.377 40.831,19.377 40.793,19.377 C40.793,19.396 40.793,19.415 40.793,19.434 C40.754,19.434 40.716,19.434 40.677,19.434 C40.677,19.454 40.677,19.473 40.677,19.492 C40.639,19.492 40.600,19.492 40.562,19.492 C40.562,19.511 40.562,19.531 40.562,19.550 C40.485,19.569 40.408,19.588 40.331,19.607 C40.331,19.627 40.331,19.581 40.331,19.600 C40.254,19.619 40.177,19.638 40.100,19.658 C40.100,19.677 40.100,19.696 40.100,19.715 C40.062,19.715 40.023,19.715 39.985,19.715 C39.985,19.735 39.985,19.754 39.985,19.773 C39.773,19.792 38.929,19.927 38.718,19.946 C35.268,19.923 27.480,19.946 10.270,19.946 C9.341,19.665 8.363,19.487 7.501,19.146 C6.674,18.896 5.847,18.646 5.020,18.396 C5.020,18.377 5.020,18.357 5.020,18.338 C4.981,18.338 4.943,18.338 4.904,18.338 C4.904,18.319 4.904,18.300 4.904,18.280 C4.866,18.280 4.827,18.280 4.789,18.280 C4.770,18.242 4.750,18.203 4.731,18.165 C4.693,18.165 4.654,18.165 4.616,18.165 C4.597,18.127 4.577,18.088 4.558,18.050 C4.520,18.050 4.481,18.050 4.443,18.050 C4.443,18.030 4.443,18.011 4.443,17.992 C4.385,17.973 4.327,17.953 4.270,17.934 C4.250,17.896 4.231,17.857 4.212,17.819 C4.173,17.819 4.135,17.819 4.096,17.819 C4.096,17.800 4.096,17.780 4.096,17.761 C4.039,17.723 3.981,17.684 3.923,17.646 C3.923,17.607 3.923,17.569 3.923,17.530 C3.885,17.511 3.846,17.492 3.808,17.473 C3.808,17.434 3.808,17.396 3.808,17.357 C3.770,17.338 3.731,17.319 3.693,17.300 C3.693,17.261 3.693,17.223 3.693,17.184 C3.635,17.146 3.577,17.107 3.519,17.069 C3.519,17.030 3.519,16.992 3.519,16.953 C3.481,16.934 3.443,16.915 3.404,16.896 C3.404,16.857 3.404,16.819 3.404,16.780 C3.385,16.780 3.366,16.780 3.346,16.780 C3.346,16.742 3.346,16.703 3.346,16.665 C3.327,16.665 3.308,16.665 3.289,16.665 C3.289,16.569 3.289,16.473 3.289,16.376 C3.189,16.051 3.112,15.733 3.116,15.280 C3.173,15.261 3.231,15.242 3.289,15.222 C3.238,14.948 3.394,14.742 3.280,14.530 C3.241,14.415 3.203,14.299 3.164,14.184 C3.145,14.184 3.126,14.184 3.107,14.184 C3.029,13.876 2.653,11.999 1.569,9.979 C1.396,9.656 0.123,9.061 0.123,9.061 L0.111,7.963 L1.977,7.963 L3.939,11.002 L4.019,11.996 L4.974,12.010 L4.974,11.035 C4.974,11.035 1.977,7.684 1.977,7.517 C1.977,5.734 1.977,1.990 1.977,1.990 L6.979,1.991 C6.979,1.991 6.979,1.310 6.979,1.118 Z" class="cls-1"/>
</svg>