<?xml version="1.0" encoding="UTF-8" standalone="no"?>
<svg width="59px" height="21px" viewBox="0 0 59 21" version="1.1" xmlns="http://www.w3.org/2000/svg" xmlns:xlink="http://www.w3.org/1999/xlink" xmlns:sketch="http://www.bohemiancoding.com/sketch/ns">
    <!-- Generator: Sketch 3.4.2 (15855) - http://www.bohemiancoding.com/sketch -->
    <title>Shape</title>
    <desc>Created with Sketch.</desc>
    <defs></defs>
    <g id="Page-1" stroke="none" stroke-width="1" fill="none" fill-rule="evenodd" sketch:type="MSPage">
        <g id="GB83_FV4005" sketch:type="MSLayerGroup" fill="#8C8C7C">
            <g id="Page-1" sketch:type="MSShapeGroup">
                <path d="M46,16 L46,13 L38,9 L33,9 L33,8 L32,7 L32,5 L44,5 L44,5.30000019 L49,5.30000019 L49,5 L59,5 L59,4 L49,4 L49,3.70000005 L44,3.70000005 L44,4 L33,4 L31,1 L29,1 L28,2 L27,2 L27,1 L23,1 L23,0 L12,0 L11,2 L11,9 L21,9 L21,10 L8,10 L7,8 L6,7 L5,7 L0,12 L0,14 L0,15 L4,19 L9,21 L39,21 L46,16 Z" id="Shape"></path>
            </g>
        </g>
    </g>
</svg>