<?xml version="1.0" encoding="UTF-8" standalone="no"?>
<svg width="49px" height="22px" viewBox="0 0 49 22" version="1.1" xmlns="http://www.w3.org/2000/svg" xmlns:xlink="http://www.w3.org/1999/xlink" xmlns:sketch="http://www.bohemiancoding.com/sketch/ns">
    <!-- Generator: Sketch 3.4 (15575) - http://www.bohemiancoding.com/sketch -->
    <title>Shape</title>
    <desc>Created with Sketch.</desc>
    <defs></defs>
    <g id="Page-1" stroke="none" stroke-width="1" fill="none" fill-rule="evenodd" sketch:type="MSPage">
        <path d="M41,22 L44,21 L48,18 L49,15 L46,12 L46,11 L45,10 L43,10 L43,11 L42,11 L42,10 L41,9 L38,9 L36,10 L36,11 L33,11 L33,10 L29,10 L29,11 L27,11 L27,9 L30,9 L33,7 L49,3 L48,1.5 L30,5.5 L25,4 L24,2 L22,2 L21,3 L19,3 L19,2 L15,2 L14,0 L9,0 L8,2 L10,2 L10,3 L8,3 L7,3 L6,1 L3,1 L3,3 L5,3 L5,4 L2,4 L2,2 L0,3 L0,4 L1,4 L2,6 L2,7 L0,8 L0,16 L1,16 L1,15 L3,15 L3,19 L5,21 C5,21 7.616,22 8,22 L41,22 Z" id="Shape" fill="#8C8C7C" sketch:type="MSShapeGroup"></path>
    </g>
</svg>