<?xml version="1.0" encoding="UTF-8" standalone="no"?>
<svg width="52px" height="17px" viewBox="0 0 52 17" version="1.1" xmlns="http://www.w3.org/2000/svg" xmlns:xlink="http://www.w3.org/1999/xlink">
    <!-- Generator: Sketch 3.8.2 (29753) - http://www.bohemiancoding.com/sketch -->
    <title>G121_Grille_15_L63</title>
    <desc>Created with Sketch.</desc>
    <defs></defs>
    <g id="Page-1" stroke="none" stroke-width="1" fill="none" fill-rule="evenodd">
        <g id="G121_Grille_15_L63" fill="#8C8C7C">
            <g id="Layer_1">
                <path d="M11.0483915,7 L11.1019992,8.21856937 L13.064941,7.84912109 L26.9522913,8.19760052 L32.2,9.5 L33.3,12 L29.869169,14.9493109 C28.6159416,16.0266467 26.2581998,16.9 24.6037601,16.9 L6.50956363,16.9 C5.39971228,16.9 3.87250729,16.2725073 3.08502026,15.4850203 L0.7,13.1 L0.1,10.8 L0.1,9.06713867 L5.12963877,9.06713867 L3.96923838,5.90000009 L0.700000024,5.15771484 L0.700000024,4.08178711 L3.96923838,4.08178711 L3.96923838,1.9609375 L5.9687501,0.482421874 L11.1019989,0.482421874 L11.0567062,2 L13,2 L13,3 L11.0268608,3 L11,3.9 L52,4.1 L51.9,5.8 L13,5.89511002 L13,7 L11.0483915,7 Z" id="Combined-Shape"></path>
            </g>
        </g>
    </g>
</svg>