<?xml version="1.0" encoding="utf-8"?>
<!-- Generator: Adobe Illustrator 22.0.0, SVG Export Plug-In . SVG Version: 6.00 Build 0)  -->
<svg version="1.1" id="Layer_1" xmlns="http://www.w3.org/2000/svg" xmlns:xlink="http://www.w3.org/1999/xlink" x="0px" y="0px"
	 width="53px" height="15px" viewBox="0 0 53 15" style="enable-background:new 0 0 53 15;" xml:space="preserve">
<style type="text/css">
	.st0{fill-rule:evenodd;clip-rule:evenodd;fill:#8C8C7C;}
</style>
<path class="st0" d="M3.2,7.9L5,6L4.3,6.2L3.8,5.9L3.5,4.1l0.9,0.1l0.7-0.5l0.7,0L5.9,4H11c0,0,0.1-0.4,0-0.4S8,3.6,8,3.6V3.1h2.1
	c0,0,0.1-1.1,0-1.1c-0.1,0-8-0.3-8-0.3c0-0.1,0-0.3,0-0.3l8-0.4V0h1v1h1.1l-0.2,1l-0.9,0.5l-0.3-0.1l0,0.6h1.3l1-0.1V2.4H14V3h0.8
	H16V2.4c0,0,1-0.1,1,0c0,0.1,0,0.5,0,0.5l0.6,0c0,0,2,0.6,2,0.7c0,0.1,0.4,0.6,0.4,0.6s3.4,0,3.5,0.1c0.1,0,1.8,1.1,1.8,1.1H26v0.4
	c0,0,2.3-0.1,2.3,0c0,0.1,0.2,0.3,0.2,0.3l20.9,0l0-1.3l0.3,1.1h0.7H53v1.2h-3.2l-0.3,1.1V7.1l-21.3,0l-0.2,0.2l-2.5-0.1v0.2
	l-2.7,0.1L22,7.6V8h4V7.8h1.1L33,8.1l0.4,0.5l0.2-0.3h1.8l1.6,0.4l1-0.2c0,0,1,0.8,1,0.9c0,0.1-0.3,0.9-0.4,0.9
	C38.4,10.3,38,10,38,10l-0.7,0.9l0.1,0.7l-0.5,1.1L32.8,15H6.4l-3.7-1.1l-0.4-0.8l0.2-0.7l-0.4-0.3l-0.8-0.2L0.7,11L1.8,10l-0.7,0.1
	L0.3,9.8C0.3,9.8,0,9.1,0,9c0-0.1,0.4-1,0.4-1l0.9-0.3l0.9,0.6l0.3,0.6l0.7-0.3l0.8,0l0-0.6L3.2,7.9z"/>
</svg>
