<svg xmlns="http://www.w3.org/2000/svg" width="51" height="19" viewBox="0 0 51 19">
  <path fill="#8C8C7C" fill-rule="evenodd" d="M6.11134235,18.4839396 C6.62128101,18.6870396 7.47704471,18.8534467 8.03701145,18.8556772 L33.195025,18.9558892 C34.301169,18.9602953 35.9002098,18.4224036 36.7758752,17.7473102 L40.0998535,15.1846924 L40.0307617,13.0915527 L38.4428711,11.8360596 L37.9749756,11.8704834 L37.9642334,10.8843994 L37.076416,10.8925781 L37.076416,11.7258301 L34.8806152,11.7427979 L33.4199219,9.85058594 L33.0245361,10.8155518 L31.885498,10.8311768 L29.2091064,8.67651367 L30.03479,7.81713867 L31.9633789,7.89575195 L33.0004883,6.88977051 L51.0108643,6.85546875 L50.9730225,5.87194824 L31.7701416,5.83349609 L27.0495605,4.92712402 L25.0078125,4.89379883 L24.7553711,3.89685059 L22.5700684,3.86962891 L22.0925293,4.74499512 L20.7774658,4.81787109 L20.0615234,3.85656738 L17.3413086,3.85522461 L17.3413086,0 L17.0263672,0 L17.0263672,4.6829834 L8.8894043,4.81787109 L8.74450684,3.82897949 L7.97888184,3.86437988 L8.02844238,6.85437012 L8.8894043,7.77429199 L17.8817139,8.67248535 L19.0192871,8.81799316 L19.0115967,9.91577148 L17.9891357,9.91259766 L17.9891357,10.8933105 L9.03369141,10.9316406 L8.51074219,9.91870117 L0,9.91882324 L0.745239258,10.9468994 L0.997192383,12.6403809 L1.97412109,12.9863281 L1.02380371,14.1954346 L2.0130677,15.6476951 C2.6346543,16.5601975 3.96481626,17.6290147 4.99532334,18.0394482 L6.11134235,18.4839396 Z"/>
</svg>
