<?xml version="1.0" encoding="UTF-8" standalone="no"?>
<svg width="44px" height="17px" viewBox="0 0 44 17" version="1.1" xmlns="http://www.w3.org/2000/svg" xmlns:xlink="http://www.w3.org/1999/xlink" xmlns:sketch="http://www.bohemiancoding.com/sketch/ns">
    <!-- Generator: Sketch 3.4 (15575) - http://www.bohemiancoding.com/sketch -->
    <title>Shape</title>
    <desc>Created with Sketch.</desc>
    <defs></defs>
    <g id="Page-1" stroke="none" stroke-width="1" fill="none" fill-rule="evenodd" sketch:type="MSPage">
        <path d="M30,17 L36,13 L37,9 L35,9 L35,8 L33,8 L33,9 L31,9 L31,8 L29,8 L29,6.30000019 L44,6.30000019 L44,5 L29,5 L28,4 L25,4 L25,3 L28,3 L27,1 L21,1 L20,0 L18,0 L16,2 L12,2 L9,3 L9,6 L11,6 L11,7 L5,7 L2,7 L1,8 L0,11 L6,17 L30,17 Z" id="Shape" fill="#8C8C7C" sketch:type="MSShapeGroup"></path>
    </g>
</svg>