<?xml version="1.0" encoding="UTF-8"?>
<!-- Generator: Adobe Illustrator 23.0.4, SVG Export Plug-In . SVG Version: 6.00 Build 0)  -->
<svg version="1.1" id="Layer_1" xmlns="http://www.w3.org/2000/svg" xmlns:xlink="http://www.w3.org/1999/xlink" x="0px" y="0px" width="41px" height="15.8px" viewBox="0 0 41 15.8" style="enable-background:new 0 0 41 15.8;" xml:space="preserve">
<style type="text/css">
	.st0{fill-rule:evenodd;clip-rule:evenodd;fill:#8C8C7C;}
</style>
<path class="st0" d="M1.8,6.3l0.4-0.3l0.5,0l0,0.3L3,6l2.3-0.1L5.6,0l0,5.9h0.6l0.2-0.2h3.3L10,6h2l0.2,0.2h2.6V6h0.3v0.4h0.4v0.4h2  l0.1,0.2L25,6.9V6.5h4v0.4h10.5V6.5c0,0,1.6-0.1,1.6,0c0,0.1,0,1.7,0,1.7h-1.6V7.8H29.1v0.5H25V7.9l-7.3,0.2l-0.2,0.2h-1.8v0.3h-1.5  l1.4,0.9h2.9l2.1,0.4h2.8l0.7,0.4h1.2l0.1,0.4h1.5l0.2,0.6l-0.8,0.1l0.5,0.6l0.1,0.8l-0.5,0.9l-0.7,0.5l-3.4,1.7H1.3l-0.9-0.7  L0,14.2c0,0,0.1-0.6,0.1-0.7c0-0.1,0.3-0.4,0.3-0.5c0,0,0.4-0.4,0.4-0.4l-0.1-1.1l0.2-0.7l1,0L2,9.9l3.4,0l0.9-0.3L5.9,8.8H2.8  l0,0.3l-0.6,0L1.9,8.4c0,0,0.2-0.4,0.2-0.4c0,0-0.1-0.9-0.1-0.9L1.8,6.7C1.8,6.7,1.8,6.2,1.8,6.3z"/>
</svg>