<!DOCTYPE svg PUBLIC "-//W3C//DTD SVG 1.1//EN" "http://www.w3.org/Graphics/SVG/1.1/DTD/svg11.dtd">
<svg xmlns="http://www.w3.org/2000/svg" xmlns:xlink="http://www.w3.org/1999/xlink" version="1.1" id="Layer_1" x="0px" y="0px" width="60" height="21" viewBox="0 0 60 21" enable-background="new 0 0 60 21" xml:space="preserve">
<style type="text/css">
      #path-1 {
        fill: #8c8c7c;
     }
    </style>

<path id="path-1" d="M4.7,8.5l-4.3,5l-0.3,0.8L0,14.9c0,0,0.1,0.4,0.3,0.6c0.6,0.8,0.6,0.3,0.6,0.6c0,0.3,0.5,0.2,0.5,0.2L2,16.7  l0,0.7l0.3,0.4c0,0,1.3,0.6,1.8,0.9c0.4,0.3,5.9,2,5.9,2h32.3l2.3-0.6c0,0,5-1.3,5.5-1.7c0.5-0.3,0.9-0.8,0.9-0.8s0.1-0.4,0.2-0.8  c0.1-0.4,0.4-0.7,0.4-0.7l1.2-0.6l0.1-0.4l0-2.3l-3.5-2.1v-0.4h0.3 M49.1,10.4v0.3L46.4,9l-0.5,0.2h-0.6l-0.3-0.3V8.6h-0.5v0.3  l-0.3,0.2h-3.8l-1.1-1.3L38,8.2l-0.9-0.7l-4,1h-1.3v0.2l-2.4-0.1L29.8,8l0.2,0.2h0.4l1.2-0.6c0,0,1-0.6,1.2-0.8  c0.2-0.1,0.4-0.2,0.4-0.2l2.5-0.2l0.1-0.3L38.2,6l0.2,0l1-0.1v0L59,5.6v-1L38.4,4.3l-0.1,0L35.9,4l-0.2,0l0-0.3l-0.6-0.1l-1.4,0  c0,0-0.3,0-0.6-0.2c-0.3-0.1-0.5-0.3-0.5-0.3L32.3,3l-0.4-0.3l-0.5-0.2l-0.5-0.7l-0.6,0l-0.1,0.3l-0.5-0.3l-0.7-0.3h-3.3L24.8,0H24  l-0.6,1.4h-1.9l0-0.5l-1.6,0l-0.6,0.2h-2.8l-0.2,0.3h-3.1L13,1.2h-2.3l-0.2,0.3H7.9L7.3,3.1l-0.2,0c0,0-0.4,0.2-0.5,0.7  C6.5,4.2,6.2,5,6.2,5l-0.4,1L5.4,7.3l0.3,0.4H7v0.9H5.9L5,8.5L4.6,8.4"/>
</svg>