<svg xmlns="http://www.w3.org/2000/svg" xmlns:xlink="http://www.w3.org/1999/xlink" preserveAspectRatio="xMidYMid" width="74" height="22" viewBox="0 0 74 22">
  <defs>
    <style>
      .cls-1 {
        fill: #8c8c7c;
        fill-rule: evenodd;
      }
    </style>
  </defs>
  <path d="M44.191,7.619 L35.826,9.063 L35.699,9.311 L37.843,9.057 L41.338,8.323 L49.093,8.442 L54.000,12.000 C54.000,12.000 55.012,14.533 55.000,15.000 C54.988,15.467 54.000,19.000 54.000,19.000 L51.000,21.000 L47.000,22.000 L16.000,22.000 L12.318,20.781 L9.987,19.722 L6.278,15.589 L0.927,8.808 L1.298,7.377 L4.212,5.046 L6.755,5.046 L6.268,9.202 L7.783,10.048 L7.179,9.486 L6.565,9.041 L6.755,7.124 L8.048,6.340 L9.869,5.517 L9.798,3.000 L8.000,3.000 L8.000,1.000 L26.000,1.000 L33.814,5.279 L73.000,0.372 L74.000,3.000 L44.191,7.619 ZM17.183,3.993 L17.298,3.977 L18.358,3.881 L18.464,4.358 L19.012,4.467 L18.961,3.000 L17.354,3.000 C17.333,3.315 17.268,3.658 17.183,3.993 ZM22.000,3.000 L20.106,3.000 L20.106,4.000 L22.000,4.000 L22.000,3.000 Z" class="cls-1"/>
</svg>
