<?xml version="1.0" encoding="utf-8"?>
<!-- Generator: Adobe Illustrator 22.0.0, SVG Export Plug-In . SVG Version: 6.00 Build 0)  -->
<svg version="1.1" id="Layer_1" xmlns="http://www.w3.org/2000/svg" xmlns:xlink="http://www.w3.org/1999/xlink" x="0px" y="0px"
	 width="49.5px" height="19px" viewBox="0 0 49.5 19" style="enable-background:new 0 0 49.5 19;" xml:space="preserve">
<style type="text/css">
	.st0{fill:#8C8C7C;}
</style>
<path class="st0" d="M1.2,11.1h2l2.8-0.8h9.5V9.5H7.1L6.7,9.1H5.1v0.4v0.4H4.4V9.5l0.4-0.4L4.4,8.3l1.2-0.8h0.8l0.4-0.4l0.4,0.4
	l0.8-0.8l0.4,0.8l1.2-0.8l1.6-0.4h7.5V0v6.3h1.2V5.9H21V4.8l-2-0.4V3.6L25.7,4l0,0l-4,0.4v1.6H23v0.4l0.8,0.4l2.8,1.2V6.7h1.2v1.2
	h1.2l0.8,0.4v0.4H34V7.9h2.8v0.4h11.5V7.9h1.2v1.6h-1.2l0,0H37.2v0.4h-2.8V9.5h-4.7l-1.2,0.8h-1.6v0.4h-0.4v0.8h3.2l4.7,0.8v-1.2
	h0.8v0.8h3.2l1.6,1.6l-1.2,0.4v0.8l-0.4,1.2L32.1,19H7.5L2,16.2l-0.8-0.8v-1.2L0,13.9l1.2-1.2V11.1z"/>
</svg>
