<svg xmlns="http://www.w3.org/2000/svg" width="46" height="19" viewBox="0 0 46 19">
  <path fill="#8C8C7C" fill-rule="evenodd" d="M3.75539422,16.9913393 C4.70387927,17.5560928 6.36854686,18.0144672 7.48080875,18.0151517 L29.0550799,18.0284274 C30.1640845,18.0291099 31.8834076,17.6666593 32.8917866,17.2204241 L34.6781006,16.4299316 L37.7038574,14.4384766 L38.0230713,12.923584 L38.9741211,12.9361572 L39.0339355,12.0567627 L38.0174561,11.9667969 L37.9754639,9.94799805 L36.9431152,10.0404053 L36.9293213,11.932251 L35.9696045,11.9404297 L35.9696045,10.9813232 L34.9974365,11.0479736 L34.9788818,9.88867187 L33.0623779,9.94970703 L33.0546875,9.01147461 L29.2232666,8.92626953 L29.2232666,8.43859863 L33.4158936,8.01623535 L34.2167969,6.9777832 L36.0148926,7.01049805 L36.0148926,7.58654785 L40.0390625,7.58654785 L40.0390625,7.02514648 L45.9681396,7.02514648 L45.9681396,5.99145508 L40.0460205,5.96948242 L40.0460205,5.42138672 L35.9627686,5.42138672 L36.0007324,5.95874023 L33.9530029,5.99145508 L33.0577393,5.00378418 L23.9949951,5.03186035 L24.074707,4.00964355 L28.0236816,3.97875977 L27.9973145,3.39489746 L20.9875488,3.45251465 L21.0323486,4.07641602 L23.006958,4.06506348 L22.9996338,4.92590332 L18.0043945,4.99731445 L17.9957275,0 L17.5314941,0.0224609375 L17.5169678,4.92358398 L14.9901123,6.93200684 L15.0089111,7.99047852 L16.9984131,8.01623535 L16.9989014,8.91455078 L14.6734619,8.95617676 L14.067749,7.98937988 L10.9766846,8.04577637 L11.0106201,8.91906738 L7.99755859,8.98034668 L8.01330566,7.99682617 L4.97961426,8.00256348 L3.07556152,8.95751953 L2.96594238,10.9199219 L2.00512695,10.6239014 L2.00512695,10.03479 L0,10.0644531 L0.0366210938,12.0350342 L1.04333496,12.3028564 L1.04333496,13.0374756 L0.0487060547,13.0805664 L1.24062472,14.9642521 C1.53765321,15.4336703 2.15988663,16.0413312 2.63528299,16.3243949 L3.75539422,16.9913393 Z"/>
</svg>
