<svg xmlns="http://www.w3.org/2000/svg" width="43" height="16" viewBox="0 0 43 16">
  <path fill="#8C8C7C" fill-rule="evenodd" d="M6.02995849,15.7463267 C6.56569762,15.8864266 7.45662008,16 7.99917003,16 L31.3087902,16 C32.4127793,16 34.1020116,15.5812006 35.0741099,15.0686381 L37.5305176,13.7734375 L38,12.9599609 L38,10 L37,10 L37,9 L36,9 L36,10 L35,10 L35,9 L27,9 L27,8 L43,8 L43,7 L28,7 L27,6 L23,6 L23,4 L22,4 L21,5 L19,5 L19,6 L17.427124,6 L17.427124,0 L17,0 L17,6 L12,6 L12,5 L11,5 L9,6 L9,8 L16,8.52355957 L16,9 L5,9 L4,8 L2,8 L1,9 L1,12 L0,12 L2.03744045,14.1548096 C2.41722304,14.55647 3.1506204,14.9933576 3.69513917,15.1357534 L6.02995849,15.7463267 Z"/>
</svg>
