<?xml version="1.0" encoding="UTF-8" standalone="no"?>
<svg width="57px" height="18px" viewBox="0 0 57 18" version="1.1" xmlns="http://www.w3.org/2000/svg" xmlns:xlink="http://www.w3.org/1999/xlink" xmlns:sketch="http://www.bohemiancoding.com/sketch/ns">
    <!-- Generator: Sketch 3.4 (15575) - http://www.bohemiancoding.com/sketch -->
    <title>Shape</title>
    <desc>Created with Sketch.</desc>
    <defs></defs>
    <g id="Page-1" stroke="none" stroke-width="1" fill="none" fill-rule="evenodd" sketch:type="MSPage">
        <path d="M29,18 L35,14 L35,11 L36,11 L36,10 L35,9 L26,9 L27,8 L30,8 L30,6.5 L57,6.5 L57,5 L31,5 L30,5 L30,4 L29,3 L28,3 L27,3 L26,4 L26,3 L24,3 L22,4 L21,4 L22,3 L16,3 L21,3 L21,2 L16,2 L15,0 L12,0 L9,3 L9,7 L12,8 L11,9 L8,7 L7,6 L1,6 L0,7 L0,13 L6,18 L29,18 Z" id="Shape" fill="#8C8C7C" sketch:type="MSShapeGroup"></path>
    </g>
</svg>