<svg xmlns="http://www.w3.org/2000/svg" xmlns:xlink="http://www.w3.org/1999/xlink" preserveAspectRatio="xMidYMid" width="58" height="19" viewBox="0 0 58 19">
  <defs>
    <style type="text/css">
      .cls-1 {
        fill: #8c8c7c;
        fill-rule: evenodd;
      }
    </style>
  </defs>
  <path d="M12.552,5.045 C12.006,5.045 11.461,5.045 10.915,5.045 C10.915,5.059 10.915,5.074 10.915,5.088 C10.900,5.088 10.886,5.088 10.872,5.088 C10.853,5.227 10.796,5.458 10.829,5.516 C10.890,5.557 10.970,5.558 11.087,5.559 C11.087,5.659 11.087,5.884 11.087,5.984 C10.210,5.970 9.099,5.909 8.287,6.077 C8.287,6.106 8.287,6.135 8.287,6.164 C8.178,6.300 8.156,6.563 8.158,6.808 C8.289,6.926 8.360,7.135 8.515,7.227 C8.996,7.515 10.440,8.258 11.016,8.448 C11.969,8.762 13.234,8.561 14.262,8.796 C15.533,9.086 16.374,8.456 16.775,9.652 C16.672,9.663 15.701,9.998 15.644,10.036 C15.601,10.088 15.324,10.181 15.267,10.212 C14.822,10.212 14.376,10.212 13.931,10.212 C12.682,10.212 11.432,10.212 10.182,10.212 C9.756,9.762 8.957,10.025 8.157,10.040 C8.143,10.083 8.128,10.126 8.114,10.169 C8.056,10.269 7.862,10.732 7.909,10.843 C7.320,10.843 6.979,11.008 6.390,11.008 C6.193,10.730 5.941,10.990 5.516,11.003 C5.467,11.111 5.166,10.958 5.055,11.012 C5.039,10.922 5.334,11.011 5.301,10.965 C5.104,11.088 4.299,10.936 4.064,10.972 C3.891,10.972 3.719,10.972 3.547,10.972 C3.238,11.082 2.701,10.984 2.340,11.024 C2.291,11.029 2.192,10.952 2.082,10.981 C1.893,11.029 1.471,10.940 1.187,10.945 C1.187,10.988 1.187,11.031 1.187,11.074 C1.144,11.074 1.101,11.074 1.058,11.074 C1.058,11.103 1.058,11.131 1.058,11.160 C0.772,11.593 0.968,12.374 0.979,12.980 C1.264,12.998 1.494,12.901 1.609,12.944 C1.706,12.981 1.939,13.198 1.999,13.232 C2.117,13.433 1.989,13.744 2.039,13.961 C2.133,14.380 2.452,14.701 2.469,15.254 C2.545,15.281 2.511,15.262 2.556,15.297 C2.650,15.258 2.618,15.260 2.685,15.210 C2.685,15.297 2.685,15.383 2.685,15.469 C2.761,15.579 2.712,15.736 2.685,15.857 C2.470,15.865 2.804,15.798 2.655,15.905 C2.620,15.956 2.622,15.978 2.612,16.078 C2.626,16.078 2.641,16.078 2.655,16.078 C3.014,15.991 2.671,16.029 3.030,15.943 C3.057,15.827 3.090,15.755 3.159,15.684 C3.159,15.699 3.159,15.713 3.159,15.728 C3.412,15.895 3.594,16.162 3.805,16.374 C4.322,16.862 4.839,17.351 5.356,17.839 C5.601,18.097 5.845,18.442 6.089,18.700 C6.274,18.805 6.765,18.952 6.951,19.002 C9.134,19.002 11.317,19.002 13.500,19.002 C18.914,19.002 24.330,19.002 29.745,19.002 C30.792,18.718 31.481,18.046 32.287,17.537 C33.855,16.548 36.459,15.951 35.517,13.390 C35.615,13.292 35.956,12.329 35.906,12.280 C35.725,12.112 35.403,12.002 35.174,11.893 C35.188,11.770 35.219,11.803 35.174,11.720 C35.146,11.774 35.127,11.810 35.088,11.850 C35.009,11.775 34.889,11.726 34.786,11.677 C34.813,11.565 34.806,11.595 34.786,11.462 C34.700,11.462 34.614,11.462 34.527,11.462 C34.527,11.376 34.527,11.289 34.527,11.203 C34.470,11.203 34.412,11.203 34.355,11.203 C34.355,11.261 34.355,11.318 34.355,11.376 C34.326,11.376 34.298,11.376 34.269,11.376 C34.085,11.492 33.909,11.263 33.795,11.289 C33.172,11.434 32.383,11.212 31.856,11.160 C31.720,11.147 31.715,11.257 31.640,11.246 C31.538,11.210 31.570,11.229 31.511,11.160 C31.447,11.053 31.494,10.930 31.382,10.859 C31.382,10.945 31.382,11.031 31.382,11.117 C31.195,11.103 31.008,11.088 30.822,11.074 C30.822,10.973 30.822,10.873 30.822,10.772 C30.807,10.772 30.793,10.772 30.779,10.772 C30.700,10.847 30.580,10.896 30.477,10.945 C30.491,10.822 30.523,10.856 30.477,10.772 C30.341,10.683 29.957,10.724 29.745,10.729 C29.719,10.756 29.596,10.893 29.572,10.902 C29.558,10.902 29.543,10.902 29.529,10.902 C29.376,10.933 29.242,10.799 29.141,10.772 C28.912,10.787 28.682,10.801 28.452,10.815 C28.452,10.715 28.452,10.614 28.452,10.514 C28.231,10.518 28.011,10.504 27.849,10.471 C27.800,10.366 27.723,10.030 27.633,9.954 C27.420,9.771 27.124,9.922 26.987,9.652 C27.086,9.588 27.153,9.444 27.245,9.394 C28.093,9.236 28.940,9.078 29.788,8.920 C30.131,8.797 30.475,8.224 30.822,8.111 C31.310,8.097 31.798,8.083 32.287,8.068 C32.871,7.939 33.652,7.982 34.355,7.982 C35.504,7.982 36.653,7.982 37.802,7.982 C42.254,7.982 48.650,7.982 53.102,7.982 C53.193,7.941 53.068,8.399 53.129,8.358 C53.632,8.358 55.499,8.358 56.001,8.358 C56.190,8.274 55.821,8.065 56.095,7.993 C56.486,7.891 57.625,7.941 57.985,7.941 C57.985,7.510 57.985,7.368 57.985,6.937 C57.310,6.937 56.676,6.937 56.001,6.937 C56.001,6.894 56.001,6.686 56.001,6.643 C54.967,6.643 54.305,6.478 53.271,6.478 C53.271,6.521 53.271,6.894 53.271,6.937 C46.564,6.937 39.855,6.937 33.149,6.937 C32.694,6.838 32.092,6.946 31.640,6.848 C31.368,6.848 31.095,6.765 30.822,6.765 C30.505,6.663 30.188,6.358 29.874,6.248 C29.615,6.219 29.357,6.108 29.098,6.079 C28.296,5.882 27.864,5.988 26.924,5.941 C26.924,5.912 26.924,5.884 26.924,5.855 C26.867,5.769 26.877,5.451 26.881,5.300 C26.660,5.147 26.652,5.037 26.235,5.042 C26.096,5.261 26.041,5.682 25.976,6.022 C25.862,6.022 25.292,6.022 25.177,6.022 C25.031,5.929 24.249,6.018 24.017,6.017 C24.017,5.859 24.017,5.164 24.017,5.006 C23.082,5.047 22.000,5.140 21.127,5.002 C20.834,4.956 20.182,5.196 19.834,5.045 C19.566,4.929 19.527,4.709 19.059,4.826 C19.018,4.622 18.895,4.127 18.800,3.980 C18.530,4.157 18.224,3.982 17.852,3.980 C17.062,3.977 16.758,3.990 16.030,3.984 C16.030,3.998 16.030,4.012 16.030,4.027 C16.128,4.091 16.080,4.796 15.987,4.909 C15.987,4.780 15.987,4.113 15.987,3.984 C15.837,3.978 15.930,3.969 15.845,4.027 C15.888,4.027 15.932,4.027 15.975,4.027 C15.975,4.142 15.975,4.794 15.975,4.909 C15.634,5.002 15.268,5.229 14.949,5.343 C14.877,5.218 14.887,5.223 14.691,5.214 C14.691,5.243 14.691,5.271 14.691,5.300 C14.649,5.361 14.649,5.441 14.648,5.559 C14.518,5.573 14.017,5.587 13.888,5.602 C13.888,5.386 13.888,5.171 13.888,4.955 C13.422,4.597 13.586,3.300 13.586,2.499 C13.586,2.251 13.646,0.311 13.543,0.143 C13.552,0.821 13.695,4.333 13.414,4.697 C13.329,4.772 13.229,4.816 13.155,4.783 C13.183,4.799 12.639,4.565 12.552,5.045 ZM13.672,4.869 C13.718,5.008 13.835,5.295 13.716,5.472 C13.689,5.287 13.584,5.015 13.672,4.869 ZM13.457,4.869 C13.461,5.078 13.445,5.277 13.414,5.429 C13.400,5.429 13.385,5.429 13.371,5.429 C13.349,5.181 13.288,5.096 13.328,4.869 C13.371,4.869 13.414,4.869 13.457,4.869 ZM13.112,4.912 C13.109,5.021 13.107,5.072 13.069,5.128 C13.072,5.019 13.074,4.968 13.112,4.912 ZM12.897,4.912 C12.897,4.984 12.897,5.056 12.897,5.128 C12.825,5.128 12.753,5.045 12.681,5.045 C12.681,5.016 12.681,4.988 12.681,4.959 C12.751,4.901 12.730,5.014 12.768,4.912 C12.811,4.912 12.854,4.912 12.897,4.912 ZM26.580,5.257 C26.639,5.367 26.662,5.408 26.666,5.602 C26.556,5.661 26.515,5.684 26.321,5.688 C26.262,5.578 26.239,5.537 26.235,5.343 C26.286,5.306 26.283,5.308 26.321,5.257 C26.407,5.257 26.494,5.257 26.580,5.257 ZM14.863,5.343 C14.863,5.386 14.863,5.429 14.863,5.472 C14.834,5.472 14.806,5.472 14.777,5.472 C14.777,5.487 14.777,5.501 14.777,5.516 C14.763,5.516 14.748,5.516 14.734,5.516 C14.734,5.458 14.734,5.401 14.734,5.343 C14.777,5.343 14.820,5.343 14.863,5.343 ZM35.303,11.634 C35.274,11.634 35.246,11.634 35.217,11.634 C35.268,11.703 35.235,11.687 35.303,11.634 Z" class="cls-1"/>
</svg>