<svg xmlns="http://www.w3.org/2000/svg" xmlns:xlink="http://www.w3.org/1999/xlink" preserveAspectRatio="xMidYMid" width="53" height="22" viewBox="0 0 53 22">
  <defs>
    <style type="text/css">
      .cls-1 {
        fill: #8c8c7c;
        fill-rule: evenodd;
      }
    </style>
  </defs>
  <path d="M45.656,9.761 C45.656,11.560 45.656,13.360 45.656,15.160 C45.586,15.479 46.512,15.914 46.520,16.279 C46.403,16.640 46.532,16.565 46.495,16.709 C46.188,19.176 42.640,21.939 39.625,21.968 C36.787,22.085 33.141,21.968 29.899,21.968 C23.818,21.968 17.735,21.968 11.654,21.968 C11.654,21.939 11.654,21.910 11.654,21.881 C11.596,21.881 11.539,21.881 11.482,21.881 C11.482,21.853 11.482,21.824 11.482,21.795 C11.396,21.795 11.309,21.795 11.223,21.795 C11.223,21.767 11.223,21.738 11.223,21.709 C11.109,21.681 10.994,21.652 10.879,21.623 C10.879,21.595 10.879,21.566 10.879,21.537 C10.764,21.509 10.650,21.480 10.535,21.451 C10.506,21.394 10.478,21.336 10.449,21.279 C10.391,21.279 10.334,21.279 10.277,21.279 C10.248,21.222 10.219,21.164 10.191,21.107 C10.133,21.107 10.076,21.107 10.019,21.107 C9.932,20.992 9.846,20.877 9.760,20.763 C9.646,20.734 9.531,20.705 9.416,20.677 C9.387,20.619 9.359,20.562 9.330,20.504 C9.273,20.504 9.215,20.504 9.158,20.504 C9.072,20.390 8.986,20.275 8.900,20.160 C8.785,20.132 8.670,20.103 8.555,20.074 C8.527,20.017 8.498,19.959 8.469,19.902 C8.412,19.902 8.355,19.902 8.297,19.902 C8.240,19.816 8.182,19.730 8.125,19.644 C8.068,19.644 8.010,19.644 7.953,19.644 C7.924,19.586 7.896,19.529 7.867,19.472 C7.810,19.472 7.752,19.472 7.695,19.472 C7.695,19.443 7.695,19.414 7.695,19.386 C7.609,19.357 7.523,19.328 7.437,19.300 C7.408,19.242 7.379,19.185 7.351,19.127 C7.293,19.127 7.236,19.127 7.178,19.127 C7.092,18.984 7.006,18.840 6.920,18.697 C6.748,18.554 6.576,18.410 6.404,18.267 C6.404,18.152 6.404,18.037 6.404,17.923 C6.300,17.639 5.977,17.492 6.146,16.967 C6.174,16.967 6.203,16.967 6.232,16.967 C6.232,16.881 6.232,16.795 6.232,16.709 C6.260,16.709 6.289,16.709 6.318,16.709 C6.318,16.623 6.318,16.537 6.318,16.451 C6.346,16.451 6.375,16.451 6.404,16.451 C6.591,16.215 6.788,15.100 6.767,15.219 C6.745,15.339 5.833,14.530 5.833,14.530 L5.226,14.471 C5.226,14.471 5.055,14.529 4.855,14.557 C4.254,14.773 3.702,15.349 2.963,15.391 C2.963,15.334 2.703,15.045 2.703,14.988 C2.472,14.834 2.430,14.618 2.273,14.385 C2.215,14.357 2.158,14.328 2.101,14.299 C2.101,14.242 2.101,14.184 2.101,14.127 C2.043,14.098 1.986,14.070 1.929,14.041 C1.900,13.926 1.871,13.812 1.842,13.697 C1.756,13.639 1.670,13.582 1.584,13.525 C1.584,13.467 1.584,13.410 1.584,13.353 C1.527,13.324 1.469,13.295 1.412,13.266 C1.383,13.152 1.355,13.037 1.326,12.922 C1.240,12.865 1.154,12.807 1.068,12.750 C1.068,12.693 1.068,12.635 1.068,12.578 C1.010,12.549 0.953,12.521 0.896,12.492 C0.867,12.377 0.838,12.262 0.810,12.148 C0.724,12.090 0.638,12.033 0.551,11.976 C0.425,11.792 0.347,11.608 0.293,11.373 C0.840,11.481 1.155,11.820 1.756,11.889 C1.902,11.156 2.534,10.725 2.703,9.996 C2.617,9.939 2.531,9.881 2.445,9.824 C2.445,9.767 2.445,9.709 2.445,9.652 C2.330,9.566 2.215,9.480 2.101,9.394 C2.101,9.336 2.101,9.279 2.101,9.221 C1.986,9.135 1.871,9.049 1.756,8.963 C1.756,8.906 1.756,8.849 1.756,8.791 C1.642,8.705 1.527,8.619 1.412,8.533 C1.412,8.476 1.412,8.418 1.412,8.361 C1.297,8.275 1.183,8.189 1.068,8.103 C1.068,8.045 1.068,7.988 1.068,7.931 C1.039,7.931 1.010,7.931 0.982,7.931 C0.858,7.781 0.784,7.723 0.724,7.500 C1.069,7.431 1.237,7.211 1.498,7.070 C1.670,7.012 1.842,6.955 2.015,6.898 C2.043,6.840 2.072,6.783 2.101,6.726 C2.187,6.726 2.273,6.726 2.359,6.726 C2.388,6.668 2.416,6.611 2.445,6.553 C2.502,6.553 2.560,6.553 2.617,6.553 C2.617,6.525 2.617,6.496 2.617,6.467 C2.760,6.439 2.904,6.410 3.047,6.381 C3.076,6.324 3.105,6.267 3.133,6.209 C3.305,6.152 3.478,6.094 3.650,6.037 C3.678,5.980 3.707,5.922 3.736,5.865 C3.822,5.865 3.908,5.865 3.994,5.865 C3.994,5.836 3.994,5.808 3.994,5.779 C4.051,5.779 4.109,5.779 4.166,5.779 C4.166,5.750 4.166,5.722 4.166,5.693 C4.252,5.664 4.338,5.635 4.424,5.607 C4.424,5.693 4.424,5.779 4.424,5.865 C4.396,5.865 4.367,5.865 4.338,5.865 C4.338,5.922 4.338,5.980 4.338,6.037 C4.310,6.037 4.281,6.037 4.252,6.037 C4.252,6.123 4.252,6.209 4.252,6.295 C4.224,6.295 4.195,6.295 4.166,6.295 C4.103,6.431 2.922,7.414 2.922,7.414 C2.922,7.414 3.348,8.092 3.906,8.979 C4.271,9.559 4.691,10.229 5.086,10.856 C5.835,12.047 6.536,12.998 6.536,12.998 L7.830,12.993 C7.830,12.993 6.834,11.602 6.576,10.512 C6.519,10.484 6.461,10.455 6.404,10.426 C6.404,10.369 6.404,10.312 6.404,10.254 C6.346,10.226 6.472,10.197 6.415,10.168 C6.415,10.111 6.415,10.053 6.415,9.996 C6.199,9.672 5.844,9.393 5.726,8.963 C5.963,8.827 5.653,8.751 6.015,8.705 C6.015,7.787 6.015,6.888 6.015,5.970 C7.019,5.970 9.011,5.970 9.011,5.970 L9.011,5.067 L20.007,5.067 L20.007,4.273 L20.959,4.273 L20.959,5.067 C20.959,5.067 22.864,5.067 23.186,5.067 C23.260,5.477 23.556,6.314 23.556,6.314 L51.823,-0.007 L52.461,1.531 L27.127,8.808 L27.471,9.325 L26.426,9.827 C26.426,9.827 26.687,10.777 26.861,11.206 C26.938,11.394 23.495,12.413 23.495,12.413 L23.533,13.061 C23.533,13.061 27.274,11.736 27.336,11.889 C27.397,12.043 27.422,11.960 27.422,11.960 L28.185,11.948 L28.185,13.016 L35.079,13.018 L35.050,12.525 L45.664,9.308 C45.664,9.308 45.656,9.664 45.656,9.761 ZM36.281,13.066 L45.181,14.920 C45.181,14.920 45.181,11.826 45.181,10.248 C41.956,11.266 36.278,12.808 36.278,12.808 L36.281,13.066 Z" class="cls-1"/>
</svg>