<svg xmlns="http://www.w3.org/2000/svg" xmlns:xlink="http://www.w3.org/1999/xlink" preserveAspectRatio="xMidYMid" width="55" height="19" viewBox="0 0 55 19">
  <defs>
    <style>
      .cls-1 {
        fill: #8c8c7c;
        fill-rule: evenodd;
      }
    </style>
  </defs>
  <path d="M5.371,18.967 L36.578,18.967 C36.578,18.967 40.330,16.359 40.841,15.166 C41.353,13.973 41.779,11.076 41.779,11.076 L39.136,9.117 L37.891,8.768 L37.627,8.251 L36.104,8.225 L35.666,8.609 L34.068,8.714 L33.236,8.127 L32.400,8.009 L33.679,7.789 L54.996,7.789 L54.825,5.879 L33.594,5.879 L32.059,4.132 L29.331,3.743 L28.958,3.016 L28.373,2.925 L27.261,2.459 L26.858,3.198 L25.067,3.368 L25.067,2.982 L25.920,2.812 L26.589,2.123 L31.211,2.191 L31.005,0.582 L23.405,0.514 L22.933,1.867 L21.985,2.635 L17.285,3.041 L14.077,4.893 L13.806,6.790 L14.936,7.151 L13.962,7.131 L7.063,6.861 L6.215,6.067 L2.284,6.067 L1.290,7.784 L0.115,8.190 L0.296,9.771 L1.864,10.125 L1.380,11.758 L2.058,12.255 L2.058,12.571 L1.471,13.158 L1.426,14.649 L2.284,16.772 L3.052,17.630 L5.371,18.967 Z" class="cls-1"/>
</svg>
