<?xml version="1.0" encoding="UTF-8" standalone="no"?>
<svg width="66px" height="22px" viewBox="0 0 66 22" version="1.1" xmlns="http://www.w3.org/2000/svg" xmlns:xlink="http://www.w3.org/1999/xlink" xmlns:sketch="http://www.bohemiancoding.com/sketch/ns">
    <!-- Generator: Sketch 3.4.2 (15855) - http://www.bohemiancoding.com/sketch -->
    <title>Shape</title>
    <desc>Created with Sketch.</desc>
    <defs></defs>
    <g id="Page-1" stroke="none" stroke-width="1" fill="none" fill-rule="evenodd" sketch:type="MSPage">
        <path d="M0.958,13.887 L0.969,12.007 L4.982,11.986 L5.013,11.036 L16.98,11.004 L16.971,9.01 L17.941,9.031 L18.496,3.443 L22.957,2.93 L22.967,2.179 L23.939,2.2 L23.96,2.951 C23.96,2.951 26.882,2.523 26.965,2.356 C27.049,2.189 27.353,0.977 27.353,0.977 L31.77,1.019 L32.032,2.314 L33.015,2.637 L33.025,2.011 L34.955,2.001 L35.007,2.617 L35.937,2.836 L36.031,1.97 L36.98,1.939 L37.022,2.732 L40.053,3.568 L41.515,6 L64.984,6 L65.015,7.5 L41.348,7.5 L40.921,9.009 L44.931,8.988 L45.11,10.085 L51.96,10.211 L51.939,10.858 L45.944,10.953 L45.975,11.944 L58.477,11.944 L60.92,13.01 L59.73,14.346 L60.805,15.12 L60.984,16.77 L59.961,18.9 L53.255,21.348 L51.793,21.892 L10.016,21.89 L2.245,19.61 L1.242,18.878 L1.012,17.031 L1.981,15.997 L1.418,16.018 L1.418,13.929 L0.958,13.887 Z" id="Shape" fill="#8C8C7C" sketch:type="MSShapeGroup"></path>
    </g>
</svg>