<?xml version="1.0" encoding="UTF-8"?>
<!-- Generator: Adobe Illustrator 23.0.2, SVG Export Plug-In . SVG Version: 6.00 Build 0)  -->
<svg version="1.1" id="Layer_1" xmlns="http://www.w3.org/2000/svg" xmlns:xlink="http://www.w3.org/1999/xlink" x="0px" y="0px" width="46px" height="14.6px" viewBox="0 0 46 14.6" style="enable-background:new 0 0 46 14.6;" xml:space="preserve">
<style type="text/css">
	.st0{fill-rule:evenodd;clip-rule:evenodd;fill:#8C8C7C;}
</style>
<path class="st0" d="M34.6,14.6l-22.4,0l-4.6-2.8c0,0-0.7-1.4-0.3-2.1c0-0.1,0-0.2,0-0.2L6,9.6l0,1.1L0,9.9V7.6l6,0l0.5-0.4l2.8,0  v0.4l0.3,0c0,0,1.2-0.8,1.7-0.8c0.1-0.4,0-0.9,0-0.9l-6.5,0L3.1,4.6c0,0-0.2-1,0.6-1.1c0.8,0,6.9,0,6.9,0l3.5-0.9l4.1,0l0-1.2l1.6,0  l0.1-0.7l-1.8,0L18,0l6.1,0l0,0.6l-3.2,0l0,1.5l-1.8,0l0,0.7h4.7l1.4,0.7l17.4,0.2L46,3.2L46,5l-3.4-0.4L25.2,4.8l-0.7,0.5l3,1.2  h2.2c0,0,1.4-1.1,2.2,0c1.9,0,9.1,0.2,9.1,0.2l0,1.6c0,0,0.5,0.7,0,1.5c0.1,0.3,0.3,1.4-0.4,2C39.8,12.2,34.6,14.6,34.6,14.6z"/>
</svg>