<svg xmlns="http://www.w3.org/2000/svg" width="51" height="17" viewBox="0 0 51 17">
  <path fill="#8C8C7C" fill-rule="evenodd" d="M49.0280762,7.02109227 L38.0280762,6.99159098 L38.0280762,7.50402832 L35.0280762,7.50402832 L35.0280762,6.98354518 L28.1459961,6.96508789 L28.0672607,7.97399902 L30.0655518,8.03259277 L30.0598145,8.9934082 L31.0981445,8.96887207 L31.2867432,8.27111816 L32.0594482,8.03259277 L32.0594482,10.0198975 L34.0136719,10.0146484 L35.0849609,10.7436523 L35.0374756,11.927002 L33.3988893,13.6422221 C33.018169,14.040748 32.3234041,14.5695703 31.8409906,14.8297628 L30.5110602,15.5470683 C30.0398247,15.8012318 29.1916878,16.0178221 28.6416602,16.0173702 L8.4561314,16.0007856 C7.35434901,15.9998803 5.75044095,15.4584134 4.87520369,14.7913865 L4.18658396,14.2665826 C3.74930896,13.9333311 3.35205932,13.2196873 3.29530068,12.6695651 L3.02197266,10.0203857 L2.06140137,10.0203857 L2.06140137,11.0863037 L0.982402316,10.9069498 C0.43717021,10.8163199 0,10.2959514 0,9.74368429 L0,9.01656962 C0,8.46691854 0.449030689,7.99347284 1.00293811,7.96494211 L2.10449219,7.90820313 L2.06140137,8.92675781 L3.04650879,9.00793457 L3.11169434,7.94677734 L5.95935059,8.01428223 L5.91882324,7.01062012 L8.09643555,6.93286133 L8.01647949,7.97814941 L12.0178223,8.00524902 L12.1263428,7.4798584 L10.0445557,6.99572754 L10.0784912,5.9786377 L11.1071777,4.97680664 L13.0183105,4.99621582 L13.1217041,3.97229004 L14.9006348,3.98937988 L15.048584,3.00720215 L16.9207764,2.89892578 L17.0964355,3.92419434 L18.0654297,3.74890137 L18.1309814,1.97241211 L17.0349121,2.05541992 L17.0349121,1.53137207 L18.0640869,1.5300293 L18.2730713,0.370483398 L19.0961914,0 L19.0720215,1.53686523 L26.098999,1.55895996 L26.0716553,2.03173828 L19.8885498,1.98242187 L19.0330811,3.05407715 L19.0404053,3.95874023 L20.0701904,4.02819824 L20.0744629,3.38623047 L22.0936279,4.03601074 L25.0579834,3.99560547 L26.0754395,4.99121094 L27.0003662,5.0177002 L28.592041,4.98474121 L29.1097412,5.98803711 L35.0280762,5.98483076 L35.0280762,5.39855957 L38.0280762,5.39855957 L38.0280762,5.98320546 L49.0280762,5.97724604 L49.0280762,5.38269043 L50.0280762,5.38269043 L50.0280762,5.97670428 L50.0644531,5.97668457 L50.0845947,7.02392578 L50.0280762,7.0237742 L50.0280762,7.52661133 L49.0280762,7.52661133 L49.0280762,7.02109227 Z"/>
</svg>
