<svg xmlns="http://www.w3.org/2000/svg" width="57" height="17" viewBox="0 0 57 17">
  <path fill="#8C8C7C" fill-rule="evenodd" d="M0.1144096,9.07559959 L0,9.07559959 L0,10.0035921 L0.991219789,10.0035921 L0.821845244,12.1785676 C1.41560297,12.1227317 1.745168,12.1227317 1.81054033,12.1785676 C1.85182411,12.2138289 2.33649429,12.7400577 3.26455086,13.7572538 L3.26455086,13.7572538 C4.59087551,15.2109716 6.46784021,16.0392754 8.4356899,16.0392754 L30.4087358,16.0392754 L30.4087358,16.0392754 C31.8356715,16.0392754 33.2158962,15.5307229 34.301702,14.6048874 L36.067228,13.0994742 L37.3463781,11.8802098 L37.3463781,10.3926546 L33.9249638,9.07559959 L32.6194735,8.68964956 L31.9375846,9.07559959 L31.9375846,8.05068053 L29.0383558,6.94222677 L29.0383558,6.04365255 L52.9713219,6.04365255 L52.9713219,6.94222677 L54.9246725,6.94222677 L54.9246725,5.88567591 L56.9246725,5.88567591 L56.9246725,5.03210307 L54.9246725,5.03574778 L54.9246725,4.25506615 L52.9713219,4.25506615 L52.9713219,5.03574778 L32.026395,5.03574778 L28.0045454,4.02652577 L27.2885772,3.60607862 L27.2885772,3.60607862 C27.0569562,3.47006085 26.8003098,3.38209307 26.5339507,3.34742387 L24.5787449,3.09293504 L22.8392255,3.09293504 L16.9695194,3.09293504 L16.9695194,2.07635846 L16.0046443,2.07635846 L17.9941091,2.14353612 L17.9941091,1.52805779 L24.9249638,1.52805779 L24.9249638,1.02695941 L16.0046443,1.02695941 L16.0046443,0.0416671813 L14.944599,0.647266248 L14.944599,1.06614717 L13.9533792,1.06614717 L14.944599,2.07635846 L13.0052975,2.07635846 C12.4530127,2.07635846 12.0052975,2.52407371 12.0052975,3.07635846 L12.0052975,3.09293504 L9.97202913,3.09293504 L9.32844273,3.68391996 L9.32844273,3.68391996 C9.0835752,3.90877403 8.89862033,4.19112099 8.79030537,4.5054255 L8.63185168,4.96522079 C8.44033702,5.52095123 8.64012366,6.13632258 9.1215542,6.47357444 L9.36324675,6.64288498 L13.9553428,7.0729624 L6.67085879,7.0729624 L6.67085879,7.0729624 C6.27019996,7.0729624 5.90821924,7.31210209 5.75103142,7.68063904 L5.59320189,8.05068053 L2.95993816,8.05068053 L2.9438664,8.09207696 C2.76618076,7.46188744 2.18703018,7 1.5,7 C0.671572875,7 0,7.67157288 0,8.5 C0,8.70393095 0.0406959156,8.89835687 0.1144096,9.07559959 Z"/>
</svg>
