<svg xmlns="http://www.w3.org/2000/svg" width="65" height="21" viewBox="0 0 65 21">
  <path fill="#8C8C7C" fill-rule="evenodd" d="M4.14861411,11.6833774 L4.34577921,11.223489 L7.98795528,11.0477847 L7.98795528,10.4041198 L9.99548266,10.0601601 L9.99548266,11.0477847 L16.0376362,11.0477847 L16.0376362,10.4041198 L15.019486,9.98435748 L15.3887133,8.89405615 L16.0376362,9.06961438 L17.0441019,7.81879849 L17.0441019,7.0360892 L17.9835283,6.17684704 L20.4828232,6.17684704 L20.4828232,0.0593291008 L20.9769276,0.0593291008 L20.9769276,6.17684704 L23.0060711,6.17684704 L23.0060711,5.38785738 L26.1259541,5.09516295 L26.1259541,5.94505759 L27.2670827,5.94505759 L27.2670827,5.09516295 L26.1259541,4.05700329 L26.4989789,3.82682045 L27.2670827,4.53577191 L33.5549008,1.58093115 L33.7482778,2.01982673 L27.9796855,4.76259549 L30.0694419,5.09516295 L30.9685571,6.17684704 L32.0308159,6.17684704 L32.0308159,5.09516295 L32.9646922,5.09516295 L32.9646922,6.17684704 L35.1023546,5.94505759 L36.0448482,7.0360892 L41.019485,7.0360892 C41.5551746,7.0360892 41.9894369,7.47035147 41.9894369,8.00604113 L62.1023929,8.00604113 L62.1023929,7.0360892 L63.0200571,7.0360892 L63.0200571,8.00604113 L64.0675642,8.00604113 L64.0675642,9.06961438 L63.0200571,9.06961438 L63.0200571,9.98435748 L62.1023929,9.98435748 L62.1023929,9.06961438 L41.9894369,9.06961438 L40.0162325,11.0477847 L40.0162325,12.9612526 L40.9873529,12.9612526 L40.9873529,12.045195 L41.9894369,12.045195 L41.9894369,13.1305304 L44.0951133,13.1305304 L44.7666747,14.0389932 L45.1237794,15.0222361 L44.5152588,16.428754 C44.2433697,17.0571914 43.7646807,17.5737087 43.1586962,17.892519 L41.4414925,18.795945 C39.8621848,19.6268236 38.1044408,20.0609911 36.3199038,20.0609911 L36.3199038,20.0609911 L11.1792265,20.0609911 C9.43798465,20.0609911 7.71514308,19.7048396 6.11662429,19.0144332 L6.11662429,19.0144332 C4.6009402,18.3598035 3.50785684,16.9970004 3.19778555,15.3753672 L3.19778555,15.3753672 L3.04223743,14.5618704 L3.15898474,14.0636349 C2.98011975,14.1261939 2.78784891,14.1602045 2.58763448,14.1602045 C1.63216835,14.1602045 0.85761002,13.3856462 0.85761002,12.4301801 C0.85761002,11.4747139 1.63216835,10.7001556 2.58763448,10.7001556 C3.27565192,10.7001556 3.86986446,11.1017822 4.14861411,11.6833774 Z"/>
</svg>
