<svg xmlns="http://www.w3.org/2000/svg" width="43" height="18" viewBox="0 0 43 18">
  <path fill="#8C8C7C" fill-rule="evenodd" d="M8.40844232,15.2707409 C9.76030221,16.2381217 12.19754,17.0236593 13.8607946,17.0252966 L32.1561732,17.0433069 C33.8155643,17.0449404 36.2326393,16.2228622 37.5408042,15.2179424 L42.020752,11.7764893 L42.020752,9.88879395 L41.015625,8.52806335 L38.1000977,9.02905273 L37.6945801,9.88879395 L35.8303223,9.60681152 L33.9471436,8.03125 L30.6168213,7.97302246 L30.0220947,7.04992676 L32.2319336,7.01525879 L33.5786133,6.01416016 L40.9667969,6.00073242 L41.015625,5.00024414 L33.5786133,4.99780273 L32.149292,4.02490234 L31.0352783,4.0177002 L30.9630127,4.83813477 L30.0170898,4.44970703 L29.0441895,4.02734375 L28.5979004,2.96582031 L24.9935303,3.04541016 L24.2332764,3.65026855 L24.0217285,2.86901855 L24.4661865,2.01477051 L25.0749512,1.94226074 L25.3117676,1.00488281 L29.9946289,1.00488281 L30.00354,0.542602539 L21.0617676,0.520996094 L21.0288086,0.977661133 L23.9945068,0.985229492 L24.012085,1.88684082 L22.9952393,2.02087402 L22.590332,2.91125488 L22.0447998,2.04833984 L19.1715088,2.02624512 L18.7407227,2.96289063 L16.7518311,3.02526855 L16.1723633,3.86254883 L15.0435791,4.02282715 L15.0435791,4.02282715 C15.0148592,4.56075196 15.4378037,4.99825589 15.9883557,5.00001988 L16.0583496,5.00024414 L16.935791,6.01416016 L17.904541,6.30310059 L18.5108643,7.04992676 L18.7407227,7.97302246 L16.4686279,7.9934082 L15.9512939,6.96582031 L0.983398438,7.01525879 L0.983398438,9.00073242 L5.23828125,13.0021973 L8.40844232,15.2707409 Z"/>
</svg>
